<svg version="1.0" xmlns="http://www.w3.org/2000/svg"
 width="4986.000000pt" height="2030.000000pt" viewBox="0 0 4986.000000 2030.000000"
 preserveAspectRatio="xMidYMid meet">
<g transform="translate(0.000000,2030.000000) scale(0.100000,-0.100000)"
fill="#000000" stroke="none">
<path d="M14222 20285 c-30 -7 -92 -31 -138 -55 -123 -60 -218 -157 -278 -282
-24 -51 -49 -117 -55 -146 -8 -36 -11 -367 -11 -1027 l0 -975 -1795 0 c-1250
0 -1810 -3 -1847 -11 -29 -6 -95 -31 -146 -55 -130 -62 -224 -156 -286 -286
-24 -51 -49 -117 -55 -146 -8 -38 -11 -1403 -11 -4707 l0 -4655 -395 0 -394 0
-12 43 c-197 741 -670 1397 -1314 1822 -394 259 -817 418 -1310 492 -172 26
-678 26 -850 0 -848 -127 -1565 -542 -2075 -1202 -280 -361 -490 -815 -584
-1260 -53 -254 -61 -339 -61 -665 0 -326 8 -411 61 -665 241 -1143 1122 -2072
2256 -2380 111 -30 321 -73 388 -80 25 -2 88 -9 140 -15 120 -12 476 -13 595
0 50 5 110 11 135 14 25 2 113 18 195 35 455 92 908 293 1258 559 l67 51 0
-2059 c0 -1440 3 -2075 11 -2112 6 -29 31 -95 55 -146 36 -73 59 -107 117
-165 40 -39 97 -85 127 -101 30 -16 58 -34 62 -40 4 -6 8 -8 8 -4 0 3 26 -3
58 -15 l57 -22 1530 -3 c1092 -2 1547 0 1590 8 33 6 102 31 153 56 130 63 224
157 286 286 24 51 49 117 55 146 8 36 11 460 11 1357 l0 1305 3301 0 3301 0
-8 -92 c-4 -51 -46 -595 -93 -1208 l-86 -1115 -485 -5 -485 -5 -57 -28 c-74
-36 -139 -101 -175 -175 -28 -56 -28 -60 -31 -268 l-3 -210 27 -27 27 -27
2936 0 2937 0 28 29 27 28 -3 209 c-3 206 -3 210 -31 266 -36 74 -101 139
-175 175 l-57 28 -485 5 -485 5 -86 1115 c-47 613 -89 1157 -93 1208 l-8 92
1461 0 1461 0 0 -885 c0 -607 3 -901 11 -937 17 -80 79 -206 138 -276 l52 -62
-583 0 -582 0 -28 -27 -28 -27 0 -267 c0 -238 2 -274 20 -331 48 -156 172
-280 329 -328 62 -20 141 -20 8151 -20 8010 0 8089 0 8151 20 157 48 281 172
329 328 18 57 20 93 20 331 l0 267 -28 27 -28 27 -582 0 -583 0 52 63 c59 69
121 195 138 275 8 37 11 508 11 1597 l0 1545 1465 0 c1012 0 1480 3 1517 11
29 6 95 31 146 55 130 62 224 156 286 286 24 51 49 117 55 146 16 75 16 8449
0 8524 -6 29 -31 95 -55 146 -62 130 -156 224 -286 286 -51 24 -117 49 -146
55 -75 16 -10049 16 -10124 0 -29 -6 -95 -31 -146 -55 -130 -62 -224 -156
-286 -286 -24 -51 -49 -117 -55 -146 -8 -36 -11 -445 -11 -1307 l0 -1255 -720
0 -720 0 0 3145 c0 2219 -3 3160 -11 3197 -6 29 -31 95 -55 146 -62 130 -156
224 -286 286 -51 24 -117 49 -146 55 -37 8 -1031 11 -3387 11 l-3335 0 0 975
c0 660 -3 991 -11 1027 -6 29 -31 95 -55 146 -62 130 -156 224 -286 286 -51
24 -117 49 -146 55 -84 17 -8349 14 -8420 -4z m8422 -165 c133 -41 254 -155
307 -287 23 -56 24 -69 27 -375 l3 -318 -4541 0 -4541 0 3 318 c3 306 4 319
27 375 52 131 174 245 304 286 61 20 109 20 4203 20 4140 1 4142 1 4208 -19z
m336 -5489 c0 -4347 0 -4349 -20 -4415 -41 -133 -155 -254 -287 -308 l-58 -23
-4175 0 -4175 0 -58 23 c-132 54 -246 175 -287 308 -20 66 -20 68 -20 4415 l0
4349 4540 0 4540 0 0 -4349z m-9240 2469 l0 -540 -1317 -2 -1318 -3 -47 -22
c-66 -30 -133 -96 -165 -162 l-28 -56 -3 -4187 -2 -4188 -550 0 -550 0 2 4668
3 4667 23 58 c53 131 175 245 305 286 61 19 98 20 1855 20 l1792 1 0 -540z
m16124 520 c133 -41 254 -155 308 -287 l23 -58 3 -3157 2 -3158 -560 0 -560 0
-2 2678 -3 2677 -22 47 c-30 66 -96 133 -162 165 l-56 28 -2847 3 -2848 2 0
540 0 540 3329 0 c3321 0 3329 0 3395 -20z m-16121 -4292 c2 -2932 3 -3076 20
-3132 69 -225 235 -390 458 -453 61 -17 231 -18 4219 -18 3988 0 4158 1 4219
18 223 63 389 228 458 453 17 56 18 200 20 3132 l3 3072 2834 0 2833 0 34 -23
c18 -12 44 -38 56 -56 l23 -34 0 -2663 0 -2664 -1952 -3 c-1848 -2 -1956 -4
-2012 -21 -223 -67 -385 -229 -452 -452 -18 -56 -19 -170 -21 -2201 l-3 -2143
-6330 0 -6329 0 -4 633 c-4 701 -2 678 -72 816 -61 119 -157 215 -276 276 -95
49 -167 65 -316 72 l-133 6 0 4172 0 4172 23 34 c12 18 38 44 56 56 l34 23
1303 0 1304 0 3 -3072z m28681 512 c133 -41 254 -155 307 -287 23 -56 24 -69
27 -375 l3 -318 -5401 0 -5401 0 3 318 c3 306 4 319 27 375 52 131 174 245
304 286 61 20 113 20 5063 20 l5002 1 66 -20z m334 -4977 l-3 -3838 -23 -58
c-54 -132 -175 -246 -308 -287 l-66 -20 -4998 0 -4998 0 -66 20 c-133 41 -254
155 -308 287 l-23 58 -3 3838 -2 3837 5400 0 5400 0 -2 -3837z m-10958 1547
l0 -390 -3272 -2 -3273 -3 -35 -22 c-19 -12 -44 -37 -55 -55 -20 -33 -20 -51
-20 -4040 l0 -4007 21 -28 c11 -15 36 -38 54 -51 l33 -22 6702 0 6702 0 33 23
c19 12 43 38 54 57 21 35 21 44 24 1333 l2 1297 255 0 255 0 -2 -1557 -3
-1558 -23 -58 c-54 -132 -175 -246 -308 -287 l-66 -20 -6918 0 -6918 0 -66 20
c-133 41 -254 155 -308 287 l-23 58 0 4525 0 4525 23 58 c53 131 175 245 305
286 61 20 105 20 3445 20 l3382 1 0 -390z m-25775 -260 c363 -34 705 -131
1040 -295 431 -212 784 -503 1071 -882 235 -311 415 -682 510 -1050 150 -588
122 -1204 -81 -1768 -57 -159 -191 -435 -279 -573 -241 -380 -568 -708 -948
-948 -140 -89 -415 -223 -573 -279 -654 -235 -1376 -235 -2030 0 -158 56 -433
190 -573 279 -380 240 -707 568 -948 948 -88 138 -222 414 -279 573 -235 652
-235 1376 0 2030 56 158 190 433 279 573 240 380 568 707 948 948 138 88 414
222 573 279 221 80 498 143 720 164 130 12 442 13 570 1z m25778 -2702 c2
-2293 3 -2416 21 -2472 67 -223 229 -385 452 -453 56 -17 202 -18 3197 -20
l3137 -3 0 -1280 0 -1280 -6655 0 -6655 0 0 3960 0 3960 3250 0 3250 0 3
-2412z m-20479 312 c133 -41 255 -155 307 -287 20 -50 24 -80 27 -225 l4 -168
-1384 0 -1383 0 -2 140 -3 140 886 0 886 0 29 29 c16 16 29 39 29 51 0 12 -13
35 -29 51 l-29 29 -891 0 -891 0 -4 23 c-3 12 -10 58 -16 102 -7 44 -14 92
-17 108 l-5 27 1210 0 c1189 0 1211 0 1276 -20z m336 -3635 l0 -2795 -1900 0
-1900 0 0 1754 0 1753 53 48 c203 186 427 474 584 750 191 334 337 783 374
1150 6 61 13 116 15 123 3 9 289 12 1389 12 l1385 0 0 -2795z m12820 535 l0
-1320 -6330 0 -6330 0 0 1320 0 1320 6330 0 6330 0 0 -1320z m-3080 -1503 c0
-13 41 -549 90 -1192 50 -643 90 -1177 90 -1187 0 -17 -54 -18 -1590 -18
-1536 0 -1590 1 -1590 18 0 10 41 544 90 1187 50 643 90 1179 90 1192 l0 23
1410 0 1410 0 0 -23z m-9742 -2294 c-3 -307 -4 -320 -27 -376 -53 -132 -174
-246 -307 -287 -65 -20 -85 -20 -1564 -20 -1479 0 -1499 0 -1564 20 -133 41
-254 155 -307 287 -23 56 -24 69 -27 376 l-3 317 1901 0 1901 0 -3 -317z
m19122 -13 c0 -6 18 -39 41 -75 59 -94 175 -197 273 -245 162 -78 133 -75 851
-75 638 0 640 0 720 23 184 53 339 172 427 328 l30 54 3590 0 3589 0 -3 -217
c-3 -208 -4 -220 -28 -268 -31 -64 -101 -134 -165 -165 l-50 -25 -8095 0
-8095 0 -50 25 c-64 31 -134 101 -165 165 -24 48 -25 60 -28 268 l-3 217 3580
0 c2438 0 3581 -3 3581 -10z m2150 -6 c0 -3 -14 -24 -31 -45 -43 -54 -148
-127 -228 -158 l-66 -26 -629 -3 c-435 -2 -646 1 -683 8 -89 19 -200 81 -270
151 -35 35 -63 67 -63 71 0 4 443 8 985 8 542 0 985 -3 985 -6z m-10242 -260
c49 -20 90 -60 113 -109 15 -32 19 -65 19 -167 l0 -128 -2830 0 -2830 0 0 125
c0 137 10 178 58 229 15 16 45 37 67 47 39 18 132 19 2703 19 2385 0 2667 -2
2700 -16z"/>
<path d="M14638 19811 c-153 -48 -180 -246 -45 -322 84 -47 191 -18 238 64 61
109 -6 242 -131 261 -19 3 -47 1 -62 -3z"/>
<path d="M15238 19811 c-153 -48 -180 -246 -45 -322 84 -47 191 -18 238 64 61
109 -6 242 -131 261 -19 3 -47 1 -62 -3z"/>
<path d="M15838 19811 c-153 -48 -180 -246 -45 -322 84 -47 191 -18 238 64 61
109 -6 242 -131 261 -19 3 -47 1 -62 -3z"/>
<path d="M14969 17351 c-16 -16 -29 -39 -29 -51 0 -12 13 -35 29 -51 29 -29
30 -29 151 -29 121 0 122 0 151 29 16 16 29 39 29 51 0 12 -13 35 -29 51 -29
29 -30 29 -151 29 -121 0 -122 0 -151 -29z"/>
<path d="M15569 17351 c-16 -16 -29 -39 -29 -51 0 -12 13 -35 29 -51 l29 -29
292 0 292 0 29 29 c16 16 29 39 29 51 0 12 -13 35 -29 51 l-29 29 -292 0 -292
0 -29 -29z"/>
<path d="M16469 17351 c-16 -16 -29 -39 -29 -51 0 -12 13 -35 29 -51 l29 -29
292 0 292 0 29 29 c16 16 29 39 29 51 0 12 -13 35 -29 51 l-29 29 -292 0 -292
0 -29 -29z"/>
<path d="M17369 17351 c-16 -16 -29 -39 -29 -51 0 -12 13 -35 29 -51 l29 -29
522 0 522 0 29 29 c16 16 29 39 29 51 0 12 -13 35 -29 51 l-29 29 -522 0 -522
0 -29 -29z"/>
<path d="M18729 17351 c-16 -16 -29 -39 -29 -51 0 -12 13 -35 29 -51 l29 -29
762 0 762 0 29 29 c16 16 29 39 29 51 0 12 -13 35 -29 51 l-29 29 -762 0 -762
0 -29 -29z"/>
<path d="M14969 16551 c-16 -16 -29 -39 -29 -51 0 -12 13 -35 29 -51 29 -29
30 -29 151 -29 121 0 122 0 151 29 16 16 29 39 29 51 0 12 -13 35 -29 51 -29
29 -30 29 -151 29 -121 0 -122 0 -151 -29z"/>
<path d="M15569 16551 c-16 -16 -29 -39 -29 -51 0 -12 13 -35 29 -51 l29 -29
642 0 642 0 29 29 c16 16 29 39 29 51 0 12 -13 35 -29 51 l-29 29 -642 0 -642
0 -29 -29z"/>
<path d="M17169 16551 c-16 -16 -29 -39 -29 -51 0 -12 13 -35 29 -51 l29 -29
1142 0 1142 0 29 29 c16 16 29 39 29 51 0 12 -13 35 -29 51 l-29 29 -1142 0
-1142 0 -29 -29z"/>
<path d="M19769 16551 c-16 -16 -29 -39 -29 -51 0 -12 13 -35 29 -51 l29 -29
442 0 442 0 29 29 c16 16 29 39 29 51 0 12 -13 35 -29 51 l-29 29 -442 0 -442
0 -29 -29z"/>
<path d="M14969 15751 c-16 -16 -29 -39 -29 -51 0 -12 13 -35 29 -51 29 -29
30 -29 151 -29 121 0 122 0 151 29 16 16 29 39 29 51 0 12 -13 35 -29 51 -29
29 -30 29 -151 29 -121 0 -122 0 -151 -29z"/>
<path d="M15569 15751 c-16 -16 -29 -39 -29 -51 0 -12 13 -35 29 -51 l29 -29
442 0 442 0 29 29 c16 16 29 39 29 51 0 12 -13 35 -29 51 l-29 29 -442 0 -442
0 -29 -29z"/>
<path d="M16769 15751 c-16 -16 -29 -39 -29 -51 0 -12 13 -35 29 -51 l29 -29
442 0 442 0 29 29 c16 16 29 39 29 51 0 12 -13 35 -29 51 l-29 29 -442 0 -442
0 -29 -29z"/>
<path d="M17969 15751 c-16 -16 -29 -39 -29 -51 0 -12 13 -35 29 -51 l29 -29
242 0 242 0 29 29 c16 16 29 39 29 51 0 12 -13 35 -29 51 l-29 29 -242 0 -242
0 -29 -29z"/>
<path d="M14969 14951 c-16 -16 -29 -39 -29 -51 0 -12 13 -35 29 -51 29 -29
30 -29 151 -29 121 0 122 0 151 29 16 16 29 39 29 51 0 12 -13 35 -29 51 -29
29 -30 29 -151 29 -121 0 -122 0 -151 -29z"/>
<path d="M15569 14951 c-16 -16 -29 -39 -29 -51 0 -12 13 -35 29 -51 l29 -29
942 0 942 0 29 29 c16 16 29 39 29 51 0 12 -13 35 -29 51 l-29 29 -942 0 -942
0 -29 -29z"/>
<path d="M17769 14951 c-16 -16 -29 -39 -29 -51 0 -12 13 -35 29 -51 l29 -29
642 0 642 0 29 29 c16 16 29 39 29 51 0 12 -13 35 -29 51 l-29 29 -642 0 -642
0 -29 -29z"/>
<path d="M14969 14151 c-16 -16 -29 -39 -29 -51 0 -12 13 -35 29 -51 29 -29
30 -29 151 -29 121 0 122 0 151 29 16 16 29 39 29 51 0 12 -13 35 -29 51 -29
29 -30 29 -151 29 -121 0 -122 0 -151 -29z"/>
<path d="M15569 14151 c-16 -16 -29 -39 -29 -51 0 -12 13 -35 29 -51 l29 -29
942 0 942 0 29 29 c16 16 29 39 29 51 0 12 -13 35 -29 51 l-29 29 -942 0 -942
0 -29 -29z"/>
<path d="M17769 14151 c-16 -16 -29 -39 -29 -51 0 -12 13 -35 29 -51 l29 -29
1242 0 1242 0 29 29 c16 16 29 39 29 51 0 12 -13 35 -29 51 l-29 29 -1242 0
-1242 0 -29 -29z"/>
<path d="M14969 13351 c-16 -16 -29 -39 -29 -51 0 -12 13 -35 29 -51 29 -29
30 -29 151 -29 121 0 122 0 151 29 16 16 29 39 29 51 0 12 -13 35 -29 51 -29
29 -30 29 -151 29 -121 0 -122 0 -151 -29z"/>
<path d="M15569 13351 c-16 -16 -29 -39 -29 -51 0 -12 13 -35 29 -51 l29 -29
642 0 642 0 29 29 c16 16 29 39 29 51 0 12 -13 35 -29 51 l-29 29 -642 0 -642
0 -29 -29z"/>
<path d="M17169 13351 c-16 -16 -29 -39 -29 -51 0 -12 13 -35 29 -51 l29 -29
642 0 642 0 29 29 c16 16 29 39 29 51 0 12 -13 35 -29 51 l-29 29 -642 0 -642
0 -29 -29z"/>
<path d="M18769 13351 c-16 -16 -29 -39 -29 -51 0 -12 13 -35 29 -51 l29 -29
342 0 342 0 29 29 c16 16 29 39 29 51 0 12 -13 35 -29 51 l-29 29 -342 0 -342
0 -29 -29z"/>
<path d="M14969 12551 c-16 -16 -29 -39 -29 -51 0 -12 13 -35 29 -51 29 -29
30 -29 151 -29 121 0 122 0 151 29 16 16 29 39 29 51 0 12 -13 35 -29 51 -29
29 -30 29 -151 29 -121 0 -122 0 -151 -29z"/>
<path d="M15569 12551 c-16 -16 -29 -39 -29 -51 0 -12 13 -35 29 -51 l29 -29
1242 0 1242 0 29 29 c16 16 29 39 29 51 0 12 -13 35 -29 51 l-29 29 -1242 0
-1242 0 -29 -29z"/>
<path d="M14969 11751 c-16 -16 -29 -39 -29 -51 0 -12 13 -35 29 -51 29 -29
30 -29 151 -29 121 0 122 0 151 29 16 16 29 39 29 51 0 12 -13 35 -29 51 -29
29 -30 29 -151 29 -121 0 -122 0 -151 -29z"/>
<path d="M15569 11751 c-16 -16 -29 -39 -29 -51 0 -12 13 -35 29 -51 l29 -29
542 0 542 0 29 29 c16 16 29 39 29 51 0 12 -13 35 -29 51 l-29 29 -542 0 -542
0 -29 -29z"/>
<path d="M32698 13531 c-115 -37 -166 -156 -109 -258 86 -153 325 -89 325 87
0 110 -116 202 -216 171z"/>
<path d="M33298 13531 c-115 -37 -166 -156 -109 -258 86 -153 325 -89 325 87
0 110 -116 202 -216 171z"/>
<path d="M33898 13531 c-115 -37 -166 -156 -109 -258 86 -153 325 -89 325 87
0 110 -116 202 -216 171z"/>
<path d="M33927 11244 c-31 -10 -64 -30 -92 -59 -74 -74 -75 -79 -75 -625 0
-546 1 -551 75 -625 74 -74 79 -75 625 -75 546 0 551 1 625 75 74 74 75 79 75
625 0 546 -1 551 -75 625 -74 75 -78 75 -629 74 -395 0 -490 -3 -529 -15z
m1048 -169 l25 -24 0 -491 0 -491 -25 -24 -24 -25 -491 0 -491 0 -24 25 -25
24 0 491 0 491 25 24 24 25 491 0 491 0 24 -25z"/>
<path d="M38376 11064 c-13 -12 -16 -39 -16 -130 0 -112 0 -114 -22 -114 -48
0 -217 -42 -346 -85 -610 -204 -1092 -682 -1304 -1293 -35 -101 -75 -257 -84
-329 l-7 -53 -113 0 c-89 0 -116 -3 -128 -16 -14 -13 -16 -55 -16 -304 0 -249
2 -291 16 -304 12 -13 39 -16 130 -16 110 0 114 -1 118 -22 91 -450 279 -810
581 -1113 293 -292 669 -493 1068 -571 l87 -17 0 -113 c0 -89 3 -116 16 -128
13 -14 55 -16 304 -16 249 0 291 2 304 16 13 12 16 39 16 128 l0 113 88 17
c621 121 1168 537 1454 1106 l58 115 0 -445 0 -445 -40 -23 c-53 -30 -96 -91
-111 -156 -25 -114 48 -237 162 -270 65 -20 73 -20 138 0 114 33 187 156 162
270 -15 65 -58 126 -111 156 l-40 23 0 688 0 687 94 0 c73 0 98 4 110 16 14
13 16 55 16 304 0 249 -2 291 -16 304 -12 12 -37 16 -110 16 l-94 0 0 668 0
667 40 23 c53 30 96 91 111 156 25 114 -48 237 -162 270 -65 20 -73 20 -138 0
-114 -33 -187 -156 -162 -270 15 -65 58 -126 111 -156 l40 -23 0 -405 0 -405
-58 115 c-99 197 -228 375 -387 535 -303 302 -663 490 -1112 581 -22 4 -23 8
-23 118 0 91 -3 118 -16 130 -13 14 -55 16 -304 16 -249 0 -291 -2 -304 -16z
m464 -304 l0 -160 -160 0 -160 0 0 160 0 160 160 0 160 0 0 -160z m-480 -199
c0 -68 4 -93 16 -105 13 -14 55 -16 304 -16 249 0 291 2 304 16 12 12 16 36
16 100 0 61 3 84 13 84 28 0 179 -41 275 -75 278 -97 514 -245 723 -454 212
-212 359 -448 458 -734 33 -96 47 -149 77 -294 4 -23 3 -23 -95 -23 -77 0
-103 -4 -115 -16 -14 -13 -16 -55 -16 -304 0 -249 2 -291 16 -304 12 -12 37
-16 110 -16 69 0 94 -3 94 -12 0 -60 -86 -327 -149 -461 -179 -388 -530 -739
-918 -918 -145 -68 -402 -149 -470 -149 -22 0 -23 4 -23 84 0 64 -4 88 -16
100 -13 14 -55 16 -304 16 -249 0 -291 -2 -304 -16 -12 -12 -16 -36 -16 -100
0 -99 5 -96 -125 -65 -631 153 -1146 619 -1360 1233 -34 96 -75 247 -75 276 0
9 23 12 84 12 64 0 88 4 100 16 14 13 16 55 16 304 0 249 -2 291 -16 304 -12
12 -37 16 -105 16 -87 0 -89 0 -85 23 30 145 44 198 77 294 99 286 246 522
458 734 217 217 467 371 764 468 78 26 239 66 280 70 4 1 7 -39 7 -88z m-1540
-1821 l0 -160 -160 0 -160 0 0 160 0 160 160 0 160 0 0 -160z m3980 0 l0 -160
-160 0 -160 0 0 160 0 160 160 0 160 0 0 -160z m-1980 -1980 l0 -160 -160 0
-160 0 0 160 0 160 160 0 160 0 0 -160z"/>
<path d="M33927 9444 c-31 -10 -64 -30 -92 -59 -74 -74 -75 -79 -75 -625 0
-546 1 -551 75 -625 74 -74 79 -75 625 -75 546 0 551 1 625 75 74 74 75 79 75
625 0 546 -1 551 -75 625 -74 75 -78 75 -629 74 -395 0 -490 -3 -529 -15z
m1048 -169 l25 -24 0 -491 0 -491 -25 -24 -24 -25 -491 0 -491 0 -24 25 -25
24 0 491 0 491 25 24 24 25 491 0 491 0 24 -25z"/>
<path d="M33927 7644 c-31 -10 -64 -30 -92 -59 -74 -74 -75 -79 -75 -625 0
-546 1 -551 75 -625 74 -74 79 -75 625 -75 546 0 551 1 625 75 74 74 75 79 75
625 0 546 -1 551 -75 625 -74 75 -78 75 -629 74 -395 0 -490 -3 -529 -15z
m1048 -169 l25 -24 0 -491 0 -491 -25 -24 -24 -25 -491 0 -491 0 -24 25 -25
24 0 491 0 491 25 24 24 25 491 0 491 0 24 -25z"/>
<path d="M6082 8586 c-57 -19 -108 -59 -131 -104 -10 -20 -236 -586 -501
-1257 -428 -1082 -483 -1226 -483 -1275 -1 -199 240 -294 380 -150 26 26 62
108 167 374 75 188 296 746 492 1241 325 821 356 905 357 960 1 151 -139 257
-281 211z m113 -166 c12 -13 16 -30 13 -52 -4 -26 -867 -2225 -950 -2420 -26
-61 -66 -81 -106 -51 -15 11 -28 31 -30 45 -4 35 952 2457 980 2481 27 23 71
22 93 -3z"/>
<path d="M4559 8167 c-25 -7 -58 -22 -75 -34 -16 -12 -196 -189 -400 -395
-296 -297 -374 -381 -385 -413 -19 -58 -15 -133 9 -180 12 -24 180 -199 409
-427 328 -326 394 -388 428 -397 115 -31 214 11 267 114 27 51 28 136 4 185
-10 19 -149 167 -309 327 l-292 293 291 292 c161 161 297 303 302 314 89 174
-64 371 -249 321z m103 -164 c10 -9 18 -30 18 -47 0 -27 -42 -72 -340 -371
l-340 -340 340 -341 c301 -301 340 -344 340 -371 0 -33 -37 -73 -69 -73 -8 0
-185 170 -393 377 -330 329 -378 381 -378 408 0 26 48 78 373 402 319 320 376
373 401 373 16 0 38 -7 48 -17z"/>
<path d="M6855 8171 c-102 -26 -167 -106 -168 -206 -1 -101 3 -107 322 -428
l295 -297 -291 -293 c-160 -160 -299 -308 -309 -327 -21 -43 -22 -132 -2 -180
32 -74 116 -130 198 -130 91 0 111 17 513 418 221 220 387 394 399 417 24 47
28 121 9 180 -11 32 -90 117 -393 421 -247 248 -394 388 -421 402 -50 25 -110
34 -152 23z m452 -524 c325 -324 373 -376 373 -402 0 -27 -48 -79 -378 -408
-208 -207 -383 -377 -390 -377 -17 0 -55 20 -64 34 -26 39 -10 59 331 406
l339 345 -339 340 c-289 290 -339 345 -339 370 0 38 26 65 64 65 27 0 74 -44
403 -373z"/>
<path d="M9629 4631 c-16 -16 -29 -39 -29 -51 0 -12 13 -35 29 -51 l29 -29
642 0 642 0 29 29 c16 16 29 39 29 51 0 12 -13 35 -29 51 l-29 29 -642 0 -642
0 -29 -29z"/>
<path d="M8815 4506 c-150 -37 -255 -149 -285 -304 -30 -152 55 -324 197 -395
229 -117 493 15 543 271 38 193 -97 388 -298 431 -65 13 -92 13 -157 -3z m204
-179 c22 -15 53 -46 68 -69 24 -36 28 -51 28 -118 0 -67 -4 -82 -28 -118 -15
-23 -46 -54 -69 -69 -36 -24 -51 -28 -118 -28 -67 0 -82 4 -118 28 -63 41 -95
97 -100 171 -6 97 36 173 121 216 61 31 158 25 216 -13z"/>
<path d="M9629 4191 c-16 -16 -29 -39 -29 -51 0 -12 13 -35 29 -51 l29 -29
442 0 442 0 29 29 c16 16 29 39 29 51 0 12 -13 35 -29 51 l-29 29 -442 0 -442
0 -29 -29z"/>
<path d="M9629 3751 c-16 -16 -29 -39 -29 -51 0 -12 13 -35 29 -51 l29 -29
242 0 242 0 29 29 c16 16 29 39 29 51 0 12 -13 35 -29 51 l-29 29 -242 0 -242
0 -29 -29z"/>
<path d="M19893 4985 c-226 -49 -382 -277 -344 -502 33 -193 181 -341 374
-374 290 -49 557 218 508 509 -31 185 -168 329 -348 367 -82 18 -109 18 -190
0z m212 -169 c73 -34 110 -69 144 -138 73 -146 17 -314 -131 -387 -193 -97
-418 42 -418 259 0 115 58 207 162 259 80 40 167 43 243 7z"/>
<path d="M9709 906 c-81 -22 -141 -84 -158 -167 -18 -81 9 -161 73 -216 47
-42 97 -57 168 -50 110 10 185 85 195 195 7 71 -8 121 -50 168 -57 66 -145 93
-228 70z"/>
<path d="M46819 4276 c-36 -13 -86 -37 -111 -54 -59 -41 -131 -121 -158 -177
l-22 -45 -681 0 c-663 0 -683 -1 -715 -20 -18 -11 -41 -34 -52 -52 -20 -33
-20 -54 -20 -1786 0 -1750 0 -1753 21 -1815 11 -34 30 -78 42 -97 35 -57 117
-138 171 -169 114 -65 11 -62 1647 -59 l1484 3 78 37 c91 44 181 127 220 204
48 95 57 146 57 320 l0 161 91 22 c472 110 839 476 961 957 20 78 23 114 23
294 0 180 -3 216 -23 294 -122 481 -489 847 -960 957 l-91 21 -3 317 c-3 309
-4 317 -25 347 -47 66 -26 64 -706 64 l-615 0 -22 45 c-28 59 -107 145 -168
183 -117 75 -291 95 -423 48z m299 -165 c46 -23 122 -87 122 -102 0 -5 -116
-9 -260 -9 -144 0 -260 4 -260 9 0 24 108 102 170 122 48 16 182 4 228 -20z
m152 -731 l0 -460 -143 0 c-179 0 -231 -13 -292 -75 -75 -74 -75 -77 -75 -645
0 -568 0 -571 75 -645 72 -72 90 -75 525 -75 435 0 453 3 525 75 75 74 75 77
75 645 0 568 0 571 -75 645 -62 63 -112 75 -302 75 l-153 0 0 460 0 460 595 0
595 0 -2 -1722 -3 -1723 -22 -48 c-31 -67 -110 -141 -179 -166 -55 -21 -56
-21 -1512 -19 l-1457 3 -53 29 c-60 34 -111 85 -144 148 l-23 43 -3 1728 -2
1727 1025 0 1025 0 0 -460z m1620 -301 c174 -48 340 -147 481 -288 148 -148
244 -313 297 -509 23 -88 26 -114 26 -282 0 -168 -3 -194 -26 -282 -53 -196
-149 -361 -297 -509 -141 -141 -307 -240 -481 -288 -120 -34 -110 -47 -110
153 l0 173 74 27 c206 75 390 265 460 476 71 214 47 453 -65 643 -86 144 -244
277 -395 333 l-74 27 0 173 c0 200 -10 187 110 153z m-1115 -344 l25 -24 0
-511 0 -511 -25 -24 -24 -25 -391 0 -391 0 -24 25 -25 24 0 511 0 511 25 24
24 25 391 0 391 0 24 -25z m1133 -208 c113 -68 217 -200 264 -336 19 -55 23
-87 23 -191 0 -104 -4 -136 -23 -191 -59 -172 -194 -317 -354 -384 l-38 -15 0
590 0 590 38 -15 c20 -9 61 -30 90 -48z"/>
<path d="M1015 2520 c-378 -76 -697 -316 -878 -660 -94 -178 -137 -361 -137
-580 0 -411 178 -768 503 -1011 179 -134 348 -204 571 -239 51 -8 795 -10
2587 -8 l2515 3 36 24 c19 13 46 40 59 59 23 34 24 42 24 207 l0 172 -30 49
c-49 78 -97 102 -246 120 -407 49 -630 202 -688 472 -14 68 -14 236 0 304 58
270 281 423 688 472 149 18 197 42 246 120 l30 49 0 172 c0 165 -1 173 -24
207 -13 19 -40 46 -59 59 l-36 24 -2535 2 c-2412 1 -2540 0 -2626 -17z m5113
-152 c18 -18 16 -238 -2 -264 -14 -19 -54 -19 -2508 -24 l-2493 -5 -80 -23
c-367 -104 -597 -401 -597 -772 0 -371 230 -668 597 -772 l80 -23 2493 -5
c2454 -5 2494 -5 2508 -24 18 -26 20 -246 2 -264 -9 -9 -577 -12 -2494 -12
-2690 0 -2555 -3 -2719 53 -156 54 -291 135 -409 247 -227 216 -346 491 -346
800 0 188 37 338 125 509 59 114 121 196 221 291 155 147 352 248 557 285 101
19 5047 21 5065 3z m-674 -480 c-71 -48 -160 -141 -197 -209 l-32 -59 -2043 0
-2044 0 -29 -29 c-37 -37 -37 -65 0 -102 l29 -29 2017 0 2016 0 -7 -47 c-10
-58 -9 -241 0 -271 l7 -22 -2016 0 -2017 0 -29 -29 c-37 -37 -37 -65 0 -102
l29 -29 2039 0 2038 0 35 -66 c39 -74 130 -172 204 -222 l49 -32 -2174 0
c-2413 0 -2231 -5 -2379 68 -57 27 -96 57 -160 122 -132 132 -190 268 -190
450 0 182 58 318 190 450 64 65 103 95 160 123 144 70 -35 65 2374 66 l2179 1
-49 -32z"/>
<path d="M42675 1374 c-455 -71 -839 -376 -1009 -802 -57 -142 -77 -239 -83
-404 l-6 -148 1283 0 1283 0 -6 147 c-6 166 -26 263 -83 405 -155 389 -484
675 -894 779 -68 17 -121 22 -270 24 -102 2 -198 1 -215 -1z m105 -195 c0 -31
6 -47 29 -70 16 -16 39 -29 51 -29 12 0 35 13 51 29 23 23 29 38 29 71 l0 41
58 -6 c245 -30 470 -142 653 -324 182 -183 294 -408 324 -654 l6 -57 -1121 0
-1121 0 6 58 c30 245 142 470 324 653 171 170 363 272 588 313 124 23 123 23
123 -25z"/>
</g>
</svg>
