<svg xmlns="http://www.w3.org/2000/svg" viewBox="0 0 24 24">
    <path d="M 12 2 C 6.487 2 2 6.487 2 12 C 2 17.513 6.487 22 12 22 C 17.513 22 22 17.513 22 12 C 22 6.487 17.513 2 12 2 z M 12 4.03125 C 16.416 4.03125 19.96875 7.584 19.96875 12 C 19.96875 16.416 16.416 19.96875 12 19.96875 C 7.584 19.96875 4.03125 16.416 4.03125 12 C 4.03125 7.584 7.584 4.03125 12 4.03125 z M 11.4375 5.34375 C 11.251113 5.3601465 11.124375 5.574375 11.25 5.84375 C 11.706 6.83075 13.31025 10.22 14.65625 12.5 L 15.875 11.90625 C 14.596 9.63325 12.40025 6.4515 11.78125 5.5625 C 11.665375 5.38775 11.549332 5.3339121 11.4375 5.34375 z M 11.09375 7.40625 C 10.858062 7.4392031 10.62825 7.57575 10.5 7.78125 L 11.9375 8.5625 C 12.1665 8.1965 12.021 7.71 11.625 7.5 C 11.525 7.445 11.45075 7.41825 11.34375 7.40625 C 11.2635 7.397 11.172313 7.3952656 11.09375 7.40625 z M 10.375 7.96875 L 9.625 9.1875 L 11.09375 9.9375 L 11.8125 8.75 L 10.375 7.96875 z M 9.53125 9.3125 L 6.5 14.1875 L 7.9375 14.9375 L 10.96875 10.09375 L 9.53125 9.3125 z M 5 11 L 5 13 L 6.875 13 L 8.15625 11.03125 L 5 11 z M 10.78125 11 L 9.5625 13 L 14.5625 13 C 14.5625 13 13.7435 11.573 13.4375 11 L 10.78125 11 z M 19 11 L 15.75 11.03125 C 15.907 11.29325 16.84375 13.03125 16.84375 13.03125 L 19 13 L 19 11 z M 15.96875 12.0625 L 14.71875 12.6875 L 15.6875 14.03125 L 16.65625 13.53125 L 15.96875 12.0625 z M 16.75 13.75 L 15.84375 14.1875 L 16.8125 16.3125 C 16.9825 16.6875 17.45375 16.8785 17.84375 16.6875 C 18.23375 16.4965 18.33775 16.0265 18.09375 15.6875 L 16.75 13.75 z M 6.375 14.34375 L 5.96875 16.6875 L 7.84375 15.15625 L 6.375 14.34375 z"/>
</svg>
