<svg version="1.1" id="Capa_1" xmlns="http://www.w3.org/2000/svg" xmlns:xlink="http://www.w3.org/1999/xlink" x="0px" y="0px"
	 viewBox="0 0 410.512 410.512" style="enable-background:new 0 0 410.512 410.512;" xml:space="preserve">
<g>
	<path d="M0.097,2.033v272.953h161.22v24.033H109.42v15h196.859v-15h-51.897v-24.033h156.13V2.033H0.097z M395.512,17.033v212.406
		H15.097V17.033H395.512z M239.382,299.018h-63.064v-24.033h63.064V299.018z M15.097,259.985v-15.547h380.415v15.547H15.097z"/>
	<path d="M23.342,337.981L0,402.479h339.365l-23.343-64.498H23.342z M21.381,387.479l12.484-34.498h271.634l12.485,34.498H21.381z"
		/>
	<path d="M399.721,348.636c-3.378-12.107-14.507-20.562-27.064-20.562c-2.313,0-4.631,0.289-6.89,0.858
		c-14.907,3.761-23.931,18.454-20.543,33.451l5.461,24.173c2.915,12.907,14.183,21.922,27.402,21.922
		c2.313,0,4.632-0.289,6.892-0.859l1.199-0.303c7.409-1.869,13.603-6.539,17.438-13.148c3.836-6.609,4.816-14.302,2.764-21.662
		L399.721,348.636z M390.642,386.641c-1.789,3.083-4.677,5.261-8.133,6.132l-1.198,0.302c-1.062,0.268-2.146,0.404-3.224,0.404
		c-6.062,0-11.433-4.301-12.771-10.228l-5.461-24.173c-1.58-6.995,2.629-13.848,9.581-15.602c1.06-0.268,2.144-0.403,3.221-0.403
		c5.853,0,11.04,3.944,12.615,9.592l6.659,23.873C392.888,379.971,392.431,383.559,390.642,386.641z"/>
	<path d="M209.504,147.235l26.256,26.256l10.607-10.606l-26.256-26.256l18.518-18.518l-83.36-35.716l35.717,83.358L209.504,147.235z
		 M212.354,123.172l-16.306,16.306l-12.225-28.531L212.354,123.172z"/>
</g>
</svg>
