<svg xmlns="http://www.w3.org/2000/svg" width="50" height="50" viewBox="0 0 50 50">
    <path d="M 21.03125 0 C 8.45925 0 2.3684758e-15 4.57075 0 8.84375 C 0 13.11775 8.45925 17.6875 21.03125 17.6875 C 33.60325 17.6875 42.03125 13.11775 42.03125 8.84375 C 42.03125 4.57075 33.60325 -1.1842379e-15 21.03125 0 z M 0 13.59375 L 0 19.15625 C 3.5527137e-15 23.43025 8.45925 28 21.03125 28 C 33.60325 28 42.03125 23.43025 42.03125 19.15625 L 42.03125 13.59375 C 38.35625 17.34775 30.44725 19.90625 21.03125 19.90625 C 11.61125 19.90625 3.676 17.34675 0 13.59375 z M 0 23.90625 L 0 29.1875 C 0 33.4585 8.45925 38.03125 21.03125 38.03125 C 23.54125 38.03125 25.858 37.85925 28 37.53125 L 28 36.90625 L 29.65625 36.625 L 31.3125 36.34375 C 31.3255 36.31375 31.33075 36.28 31.34375 36.25 L 30.375 34.84375 L 29.40625 33.46875 L 30.59375 32.28125 L 32.375 30.5 L 33.59375 29.28125 L 34.96875 30.28125 L 36.53125 31.40625 L 36.8125 29.5625 L 37.09375 27.90625 L 38.8125 27.90625 L 41.3125 27.90625 L 42 27.90625 L 42 23.9375 C 38.312 27.6725 30.42225 30.21875 21.03125 30.21875 C 11.61125 30.21875 3.676 27.65825 0 23.90625 z M 38.8125 29.90625 L 38.3125 32.90625 C 37.6125 33.10625 36.9135 33.3875 36.3125 33.6875 L 33.8125 31.90625 L 32 33.6875 L 33.6875 36.09375 C 33.2875 36.69375 33.00625 37.39375 32.90625 38.09375 L 30 38.59375 L 30 41.09375 L 32.90625 41.59375 C 33.10525 42.29375 33.3875 42.99275 33.6875 43.59375 L 32 46.09375 L 33.8125 47.90625 L 36.3125 46.1875 C 36.9135 46.5875 37.6125 46.801 38.3125 47 L 38.8125 50 L 41.3125 50 L 41.8125 47 C 42.5125 46.801 43.2125 46.4875 43.8125 46.1875 L 46.3125 47.90625 L 48.09375 46.09375 L 46.3125 43.6875 C 46.7125 43.0875 46.89475 42.3875 47.09375 41.6875 L 50 41.09375 L 50 38.59375 L 47 38.09375 C 46.8 37.39375 46.4875 36.69375 46.1875 36.09375 L 47.90625 33.59375 L 46.1875 31.90625 L 43.8125 33.6875 C 43.2125 33.2885 42.5125 33.10625 41.8125 32.90625 L 41.3125 29.90625 L 38.8125 29.90625 z M 0 33.96875 L 0 39.15625 C 0 43.43025 8.45925 48 21.03125 48 C 24.41225 48 27.46025 47.66375 30.15625 47.09375 L 29.40625 46.34375 L 30.34375 44.96875 L 31.40625 43.40625 C 31.40225 43.39525 31.41025 43.386 31.40625 43.375 L 29.65625 43.0625 L 28 42.78125 L 28 41.09375 L 28 39.75 C 25.802 40.076 23.48625 40.25 21.03125 40.25 C 11.61125 40.25 3.676 37.72175 0 33.96875 z M 40 37 C 41.7 37 43 38.3 43 40 C 43 41.7 41.7 43 40 43 C 38.3 43 37 41.7 37 40 C 37 38.3 38.3 37 40 37 z"/>
</svg>
