<?xml version="1.0" encoding="iso-8859-1"?>
<!-- Generator: Adobe Illustrator 18.0.0, SVG Export Plug-In . SVG Version: 6.00 Build 0)  -->
<!DOCTYPE svg PUBLIC "-//W3C//DTD SVG 1.1//EN" "http://www.w3.org/Graphics/SVG/1.1/DTD/svg11.dtd">
<svg version="1.1" id="Capa_1" xmlns="http://www.w3.org/2000/svg" xmlns:xlink="http://www.w3.org/1999/xlink" x="0px" y="0px"
	 viewBox="0 0 489.418 489.418" style="enable-background:new 0 0 489.418 489.418;" xml:space="preserve">
<g>
	<path d="M79.538,203.658v-28.994c0-16.45,13.327-29.776,29.776-29.776h270.797c16.449,0,29.776,13.326,29.776,29.776v28.98
		l38.157-38.156c1.6-1.601,2.438-3.816,2.293-6.079c-0.135-2.261-1.241-4.35-3.033-5.742L262.99,10.25
		c-10.752-8.364-25.809-8.364-36.563,0L42.107,153.666c-1.793,1.393-2.898,3.481-3.034,5.742c-0.144,2.263,0.692,4.479,2.294,6.079
		L79.538,203.658z"/>
	<path d="M484.544,188.778c-2.954-1.219-6.356-0.542-8.618,1.721L273.809,392.616c-7.719,7.719-18.193,12.06-29.107,12.06
		c-10.912,0-21.388-4.341-29.098-12.06L13.494,190.508c-2.263-2.263-5.664-2.94-8.618-1.713C1.928,190.014,0,192.897,0,196.092
		v256.722c0,18.019,14.608,32.628,32.627,32.628h424.164c18.018,0,32.627-14.609,32.627-32.628V196.084
		C489.418,192.89,487.492,190.005,484.544,188.778z"/>
	<path d="M335.121,190.435H154.305c-9.008,0-16.314,7.304-16.314,16.314c0,9.009,7.306,16.313,16.314,16.313h180.816
		c9.01,0,16.314-7.305,16.314-16.313C351.435,197.739,344.131,190.435,335.121,190.435z"/>
	<path d="M335.121,255.691H154.305c-9.008,0-16.314,7.304-16.314,16.314c0,9.009,7.306,16.314,16.314,16.314h180.816
		c9.01,0,16.314-7.305,16.314-16.314C351.435,262.995,344.131,255.691,335.121,255.691z"/>
</g>
<g>
</g>
<g>
</g>
<g>
</g>
<g>
</g>
<g>
</g>
<g>
</g>
<g>
</g>
<g>
</g>
<g>
</g>
<g>
</g>
<g>
</g>
<g>
</g>
<g>
</g>
<g>
</g>
<g>
</g>
</svg>
