<svg xmlns="http://www.w3.org/2000/svg" viewBox="0 0 16 16">
    <path style="line-height:normal;text-indent:0;text-align:start;text-decoration-line:none;text-decoration-style:solid;text-decoration-color:#000;text-transform:none;block-progression:tb;isolation:auto;mix-blend-mode:normal" d="M 2.5 1 C 1.6774686 1 1 1.6774686 1 2.5 L 1 12.5 C 1 13.322531 1.6774686 14 2.5 14 L 12.5 14 C 13.322531 14 14 13.322531 14 12.5 L 14 2.5 C 14 1.6774686 13.322531 1 12.5 1 L 2.5 1 z M 2.5 2 L 12.5 2 C 12.781469 2 13 2.2185314 13 2.5 L 13 12.5 C 13 12.781469 12.781469 13 12.5 13 L 2.5 13 C 2.2185314 13 2 12.781469 2 12.5 L 2 2.5 C 2 2.2185314 2.2185314 2 2.5 2 z M 5 3 L 5 4 L 6 4 L 6 3 L 5 3 z M 7 3 L 7 4 L 8 4 L 8 3 L 7 3 z M 9 3 L 9 4 L 10 4 L 10 3 L 9 3 z M 3 5 L 3 6 L 4 6 L 4 5 L 3 5 z M 5.5 5 A 0.50005 0.50005 0 0 0 5 5.5 L 5 9.5 A 0.50005 0.50005 0 0 0 5.5 10 L 9.5 10 A 0.50005 0.50005 0 0 0 10 9.5 L 10 5.5 A 0.50005 0.50005 0 0 0 9.5 5 L 5.5 5 z M 11 5 L 11 6 L 12 6 L 12 5 L 11 5 z M 6 6 L 9 6 L 9 9 L 6 9 L 6 6 z M 3 7 L 3 8 L 4 8 L 4 7 L 3 7 z M 11 7 L 11 8 L 12 8 L 12 7 L 11 7 z M 3 9 L 3 10 L 4 10 L 4 9 L 3 9 z M 11 9 L 11 10 L 12 10 L 12 9 L 11 9 z M 5 11 L 5 12 L 6 12 L 6 11 L 5 11 z M 7 11 L 7 12 L 8 12 L 8 11 L 7 11 z M 9 11 L 9 12 L 10 12 L 10 11 L 9 11 z"/>
</svg>
