<svg version="1.0" xmlns="http://www.w3.org/2000/svg"
 width="200.000000pt" height="200.000000pt" viewBox="0 0 200.000000 200.000000"
 preserveAspectRatio="xMidYMid meet">
<g transform="translate(0.000000,200.000000) scale(0.100000,-0.100000)"
fill="#000000" stroke="none">
<path d="M0 1000 l0 -1000 1000 0 1000 0 0 1000 0 1000 -1000 0 -1000 0 0
-1000z m550 151 c0 -31 -14 -49 -135 -170 l-135 -136 0 305 0 305 135 -135
c121 -121 135 -138 135 -169z m448 -24 c296 -297 322 -325 322 -357 0 -30 -15
-49 -134 -169 -179 -180 -162 -180 -341 -1 -189 189 -179 160 -183 543 -2 169
1 307 5 307 5 0 153 -145 331 -323z m792 85 c0 -4 -88 -95 -195 -202 l-195
-195 -160 160 c-87 87 -157 161 -154 164 5 5 617 78 672 80 17 0 32 -2 32 -7z
m-1190 -447 c0 -162 -4 -295 -8 -295 -5 0 -68 60 -140 134 -105 107 -132 140
-132 162 0 22 27 54 132 161 73 73 136 133 140 133 4 0 8 -133 8 -295z"/>
</g>
</svg>
