<svg xmlns="http://www.w3.org/2000/svg" viewBox="0 0 50 50">
    <path style="line-height:normal;text-indent:0;text-align:start;text-decoration-line:none;text-decoration-style:solid;text-decoration-color:#000;text-transform:none;block-progression:tb;isolation:auto;mix-blend-mode:normal" d="M 24.933594 3 C 24.08412 3 23.26248 3.0562417 22.466797 3.1445312 L 22.908203 7.1210938 C 23.59052 7.0453834 24.263067 7 24.933594 7 C 34.938291 7 43 15.038435 43 25 C 43 34.961565 34.938291 43 24.933594 43 C 24.266894 43 23.596654 42.95554 22.919922 42.880859 L 22.482422 46.857422 C 23.27369 46.944742 24.090294 47 24.933594 47 C 37.092896 47 47 37.130435 47 25 C 47 12.869565 37.092896 3 24.933594 3 z M 17.652344 4.25 C 16.080675 4.7984355 14.590884 5.5170581 13.203125 6.3886719 L 15.330078 9.7773438 C 16.464319 9.0649574 17.682372 8.4769081 18.970703 8.0273438 L 17.652344 4.25 z M 9.3320312 9.4433594 C 8.1532935 10.617649 7.1377753 11.923601 6.265625 13.304688 L 9.6484375 15.439453 C 10.380287 14.280539 11.213035 13.215054 12.154297 12.277344 L 9.3320312 9.4433594 z M 33.185547 13.912109 L 22.818359 29.945312 L 16.333984 24.113281 L 13.658203 27.087891 L 23.630859 36.056641 L 36.544922 16.083984 L 33.185547 13.912109 z M 4.1210938 17.742188 C 3.5866179 19.264733 3.1988091 20.870811 3.0117188 22.546875 L 6.9882812 22.990234 C 7.1391909 21.638299 7.4510071 20.331814 7.8945312 19.068359 L 4.1210938 17.742188 z M 6.9902344 27.023438 L 3.0136719 27.46875 C 3.201772 29.143948 3.5890074 30.748828 4.125 32.271484 L 7.8984375 30.943359 C 7.4544301 29.682016 7.1421342 28.37624 6.9902344 27.023438 z M 9.6542969 34.570312 L 6.2734375 36.707031 C 7.1475346 38.089476 8.1648447 39.393895 9.3417969 40.566406 L 12.164062 37.732422 C 11.221016 36.792933 10.3862 35.727868 9.6542969 34.570312 z M 15.339844 40.230469 L 13.216797 43.619141 C 14.605196 44.489366 16.094296 45.206552 17.666016 45.753906 L 18.982422 41.976562 C 17.694142 41.527918 16.475444 40.942244 15.339844 40.230469 z" font-weight="400" font-family="sans-serif" white-space="normal" overflow="visible"/>
</svg>
