<svg xmlns="http://www.w3.org/2000/svg" width="474" height="474"><circle cx="237" cy="237" r="237" fill="#a2d4de"/><path fill="#5b4f3f" d="M139.7 221l-36 20.2 36 20.3c5 2.8 7.5 8 7.5 15.2 0 9.4-7.3 20.5-15.7 16l-64-36c-12.7-8.7-11.2-24.5 0-31l64-36c5-2.8 10.2.4 12.4 4 5 8.8 3.6 22.4-4.5 27.2zM330 193.6c3.2-4.6 7.8-6.4 12.3-4l64 36c12.7 8.8 11.3 24.6 0 31.2l-64 36c-11 3.8-15.6-8.5-15.6-16 0-7.4 2.5-12.5 7.4-15.3l36.4-20.3-36-20.3c-9-7-9.4-19-4.3-27.6zM253.3 313c-11.6 17.4-31.4 2.2-25.6-11.8l64.3-140c11.6-17.4 31.4-2 25.5 11.8z"/></svg>