<svg xmlns:rdf="http://www.w3.org/1999/02/22-rdf-syntax-ns#" xmlns="http://www.w3.org/2000/svg" xml:space="preserve" height="340.6" viewBox="0 0 338.125 340.61124" width="338.1" version="1.1" xmlns:cc="http://creativecommons.org/ns#" xmlns:dc="http://purl.org/dc/elements/1.1/"><defs><clipPath id="a" clipPathUnits="userSpaceOnUse"><path d="m0 272.5h270.5v-272.5h-270.5v272.5z"/></clipPath></defs><g transform="matrix(1.25 0 0 -1.25 0 340.6)"><g clip-path="url(#a)"><g transform="translate(69.86 86.85)"><path d="m0 0c0-1.093-0.469-2.498-1.328-3.825-0.467-0.313-0.936-0.469-1.483-0.469-0.625 0-1.171 0.156-1.64 0.391-1.483 0.702-3.592 1.249-5.699 1.249-4.061 0-6.559-1.952-6.559-5.779v-1.014c0.313-1.952 1.25-3.514 2.654-5.075 1.563-1.718 3.983-4.061 5.856-5.778 0.078-0.078 0.312-0.234 0.312-0.312 1.563-1.406 3.123-2.968 4.373-4.295 3.28-3.436 4.842-6.871 4.842-11.24 0-8.667-5.467-14.44-15.62-14.44-5.387 0-9.057 1.406-10.54 2.811-0.857 0.781-1.17 1.249-1.17 1.952 0 1.249 1.014 3.67 2.107 5.388 2.577-2.109 6.012-3.592 9.37-3.592 4.216 0 7.027 2.654 7.027 7.339 0 3.201-1.248 5.544-4.762 8.823-0.859 1.015-1.797 1.952-2.81 2.967-0.235 0.234-0.625 0.547-1.016 0.937l-0.937 0.937c-1.874 1.874-3.592 3.435-4.84 4.997-2.657 3.357-3.592 6.246-3.592 9.136 0 6.168 4.137 12.34 14.6 12.34 6.555-0.014 10.07-2.2 10.85-3.45" fill="#fff"/></g><g transform="translate(101.4 71.86)"><path d="m0 0c0-1.015-0.469-2.889-1.25-4.216h-0.936c-0.781 0-1.64 0.235-2.578 0.547-1.248 0.546-2.81 0.937-4.136 0.937-0.235 0-0.469 0-0.86-0.079-4.529-0.39-7.73-4.45-7.73-13.43 0-10.78 4.451-13.04 9.056-13.04 2.422 0 5.155 0.858 7.184 1.874 0.391-1.172 0.703-2.421 0.703-2.967-0.078-1.172-0.937-2.499-2.029-3.357-1.563-1.094-4.217-1.796-7.262-1.796-8.668 0-16.16 3.201-16.16 18.89 0 8.198 2.732 13.35 5.855 16.24 3.124 2.889 7.184 3.826 11.09 3.826 4.918 0 8.666-2.342 9.057-3.358l-0.001-0.062z" fill="#fff"/></g><g transform="translate(115.1 66.01)"><path d="m0 0v-24.6c0-1.25-0.078-2.186-0.781-3.201-1.25-0.937-2.42-1.016-7.496-1.016 0.078 4.139 0.156 9.448 0.156 15.46l0.078 13.04c0 2.499-0.469 4.293-1.016 5.856 0.625 0.624 1.641 1.249 3.358 1.951 0.469 0.156 0.781 0.156 1.094 0.156 1.64 0 2.341-0.467 2.81-1.561 1.485 1.015 3.123 1.718 4.608 2.264 1.33 0.555 3.048 0.867 4.531 0.633 2.266-0.234 3.672-1.015 3.902-2.186 0-1.172-0.31-3.357-1.402-4.919-0.547-0.156-0.547-0.156-1.25-0.156-0.859 0-1.639 0.078-2.264 0.156-0.547 0.156-0.781 0.156-1.015 0.156-2.108 0-3.827-0.547-5.309-2.03" fill="#fff"/></g><g transform="translate(146.2 49.46)"><path d="m0 0v5.153h-0.781c-0.781 0-1.641-0.078-2.42-0.156h0.076c-3.355-0.625-6.246-2.108-6.246-6.715 0-3.592 1.406-4.919 3.357-5.075h0.469c2.031 0 4.373 1.015 5.311 2.265l-0.078-0.078c0-0.079 0.078 0.467 0.156 0.936 0.156 0.937 0.156 2.108 0.156 3.67m-15.07 19.91c-0.157 0.469-0.157 0.702-0.157 1.015 0 0.234 0.079 0.625 0.235 1.015 1.719 1.562 6.637 3.747 12.1 3.904 1.25 0 1.485 0 2.735-0.078 6.246-0.39 8.275-4.294 8.275-11.09v-3.436c0-2.889 0-5.933-0.078-8.823 0-1.796-0.078-5.309-0.078-6.715 0 0-0.234-3.514 2.187-3.045-0.078-1.093-0.156-2.889-0.156-3.357-0.703-1.015-2.422-2.109-4.842-2.186-1.795 0-3.67 1.171-4.685 2.264-0.389-0.313-1.248-0.859-1.717-1.171-1.875-0.938-3.826-1.093-6.012-1.093-5.31 0-10.38 3.279-10.38 10.54 0 9.448 8.744 12.18 13.66 12.73 0.703 0.077 1.56 0.077 2.263 0.077s1.25 0 1.719-0.077v3.825c0 3.279-0.312 4.997-2.891 4.997-2.498 0-5.543-1.093-7.806-1.952-0.86-0.39-1.719-0.624-2.889-0.624-1.094 1.171-1.406 2.498-1.562 3.357l0.078-0.078z" fill="#fff"/></g><g transform="translate(184 57.81)"><path d="m0 0c0 7.964-2.498 11.16-6.871 11.16-2.264 0-4.449-1.327-6.012-2.654v-21.94c1.094-1.171 3.045-2.108 4.92-2.108 3.276 0 7.96 3.12 7.96 15.54m-13.35-35.45c-0.625-0.391-2.419-0.781-4.371-0.781-0.937 0-2.031 0.156-3.125 0.39-0.232 1.327-0.232 3.904-0.232 7.887v35.99c0 2.42-0.313 4.216-0.859 5.777 0.468 0.782 1.638 1.328 3.279 2.031 0.625 0.156 1.015 0.156 1.015 0.156 1.405 0 2.42-0.78 2.889-1.64 1.561 1.016 3.123 1.796 4.684 2.343 1.562 0.546 2.967 0.858 4.842 0.858 7.728 0 13.98-4.84 13.98-17.02 0-9.76-2.891-15.77-7.027-19.05-2.811-2.343-5.858-2.967-8.512-2.967s-4.605 0.468-6.09 1.327v-11.71c0-1.328 0-2.343-0.156-3.358l-0.313-0.234z" fill="#fff"/></g><g transform="translate(205.5 71.4)"><path d="m0 0c0.859-2.655 2.889-9.683 4.373-14.91 0.703-2.577 1.25-5.232 1.717-7.184 0.547 2.109 1.328 4.997 1.875 7.495 0.703 3.123 1.482 6.481 2.264 9.527 0.625 2.498 1.25 5.153 1.718 7.182 0.936 0.782 1.483 1.016 3.045 1.016 0.469 0 1.483 0 2.264-0.078 0.469 0 1.328-0.078 1.719-0.078 0.31-0.625 0.545-1.327 0.545-1.952 0-0.703-0.157-1.406-0.391-2.187-2.108-8.432-6.09-22.33-10.15-33.73-4.294-11.01-8.433-14.37-12.26-14.37-4.061 0-6.09 1.406-6.559 2.812 0 0.78 0.547 2.42 0.547 2.42 1.328 0.469 2.029 0.312 2.967 0.312 1.015 0 2.107 0 3.435 0.547l-0.078-0.078c1.875 0.937 4.139 6.87 5.076 11.63-0.078 0.078 0 0.078-0.078 0.078-0.781 1.015-1.094 1.951-1.64 3.669-0.703 2.265-6.168 20.14-9.37 29.12 0.625 1.562 2.264 2.108 6.637 2.108 0.86 0 2.03-1.952 2.342-3.357" fill="#fff"/></g><g transform="translate(71.34 85.38)"><path d="m0 0c0-1.093-0.469-2.498-1.328-3.825-0.467-0.313-0.936-0.469-1.483-0.469-0.625 0-1.171 0.156-1.64 0.391-1.483 0.702-3.592 1.249-5.699 1.249-4.061 0-6.559-1.952-6.559-5.779v-1.014c0.313-1.952 1.25-3.514 2.654-5.075 1.563-1.718 3.983-4.061 5.856-5.778 0.078-0.078 0.312-0.234 0.312-0.312 1.563-1.406 3.123-2.968 4.373-4.295 3.28-3.436 4.842-6.871 4.842-11.24 0-8.667-5.467-14.44-15.62-14.44-5.387 0-9.057 1.406-10.54 2.811-0.857 0.781-1.17 1.249-1.17 1.952 0 1.249 1.014 3.67 2.107 5.388 2.577-2.109 6.012-3.592 9.37-3.592 4.216 0 7.027 2.654 7.027 7.339 0 3.201-1.248 5.544-4.762 8.823-0.859 1.015-1.797 1.952-2.81 2.967-0.235 0.234-0.625 0.547-1.016 0.937l-0.937 0.937c-1.874 1.874-3.592 3.435-4.84 4.997-2.657 3.357-3.592 6.246-3.592 9.136 0 6.168 4.137 12.34 14.6 12.34 6.555-0.014 10.07-2.2 10.85-3.45" fill="#006838"/></g><g transform="translate(102.9 70.38)"><path d="m0 0c0-1.015-0.469-2.889-1.25-4.216h-0.936c-0.781 0-1.64 0.235-2.578 0.547-1.248 0.546-2.81 0.937-4.136 0.937-0.235 0-0.469 0-0.86-0.079-4.529-0.39-7.73-4.45-7.73-13.43 0-10.78 4.451-13.04 9.056-13.04 2.422 0 5.155 0.858 7.184 1.874 0.391-1.172 0.703-2.421 0.703-2.967-0.078-1.172-0.937-2.499-2.029-3.357-1.563-1.094-4.217-1.796-7.262-1.796-8.668 0-16.16 3.201-16.16 18.89 0 8.198 2.732 13.35 5.855 16.24 3.124 2.889 7.184 3.826 11.09 3.826 4.918 0 8.666-2.342 9.057-3.358l-0.001-0.062z" fill="#006838"/></g><g transform="translate(116.6 64.53)"><path d="m0 0v-24.6c0-1.25-0.078-2.186-0.781-3.201-1.248-0.937-2.42-1.016-7.494-1.016 0.078 4.139 0.156 9.448 0.156 15.46l0.078 13.04c0 2.499-0.469 4.293-1.016 5.856 0.625 0.624 1.639 1.249 3.358 1.951 0.469 0.156 0.781 0.156 1.094 0.156 1.638 0 2.341-0.467 2.81-1.561 1.483 1.015 3.123 1.718 4.606 2.264 1.33 0.555 3.046 0.867 4.531 0.633 2.264-0.234 3.67-1.015 3.9-2.186 0-1.172-0.31-3.357-1.402-4.919-0.547-0.156-0.547-0.156-1.248-0.156-0.86 0-1.641 0.078-2.266 0.156-0.547 0.156-0.781 0.156-1.013 0.156-2.11 0-3.827-0.547-5.311-2.03" fill="#006838"/></g><g transform="translate(147.7 47.98)"><path d="m0 0v5.153h-0.781c-0.781 0-1.641-0.078-2.42-0.156h0.076c-3.355-0.625-6.246-2.108-6.246-6.715 0-3.592 1.406-4.919 3.357-5.075h0.469c2.031 0 4.373 1.015 5.311 2.265l-0.078-0.078c0-0.079 0.078 0.467 0.156 0.936 0.156 0.937 0.156 2.108 0.156 3.67m-15.07 19.91c-0.157 0.469-0.157 0.702-0.157 1.015 0 0.234 0.079 0.625 0.235 1.015 1.719 1.562 6.637 3.747 12.1 3.904 1.25 0 1.485 0 2.735-0.078 6.246-0.39 8.275-4.294 8.275-11.09v-3.436c0-2.889 0-5.933-0.078-8.823 0-1.796-0.078-5.309-0.078-6.715 0 0-0.234-3.514 2.187-3.045-0.078-1.093-0.156-2.889-0.156-3.357-0.703-1.015-2.422-2.109-4.842-2.186-1.795 0-3.67 1.171-4.685 2.264-0.389-0.313-1.248-0.859-1.717-1.171-1.875-0.938-3.826-1.093-6.012-1.093-5.31 0-10.38 3.279-10.38 10.54 0 9.448 8.744 12.18 13.66 12.73 0.703 0.077 1.56 0.077 2.263 0.077s1.25 0 1.719-0.077v3.825c0 3.279-0.312 4.997-2.891 4.997-2.498 0-5.543-1.093-7.806-1.952-0.86-0.39-1.719-0.624-2.889-0.624-1.094 1.171-1.406 2.498-1.562 3.357l0.078-0.078z" fill="#006838"/></g><g transform="translate(185.5 56.33)"><path d="m0 0c0 7.964-2.498 11.16-6.871 11.16-2.264 0-4.449-1.327-6.012-2.654v-21.94c1.094-1.171 3.045-2.108 4.92-2.108 3.276 0 7.96 3.12 7.96 15.54m-13.35-35.45c-0.625-0.391-2.419-0.781-4.371-0.781-0.937 0-2.031 0.156-3.125 0.39-0.232 1.327-0.232 3.904-0.232 7.887v35.99c0 2.42-0.313 4.216-0.859 5.777 0.468 0.782 1.638 1.328 3.279 2.031 0.625 0.156 1.015 0.156 1.015 0.156 1.405 0 2.42-0.78 2.889-1.64 1.561 1.016 3.123 1.796 4.684 2.343 1.562 0.546 2.967 0.858 4.842 0.858 7.728 0 13.98-4.84 13.98-17.02 0-9.76-2.891-15.77-7.027-19.05-2.811-2.343-5.858-2.967-8.512-2.967s-4.605 0.468-6.09 1.327v-11.71c0-1.328 0-2.343-0.156-3.358l-0.313-0.234z" fill="#006838"/></g><g transform="translate(207 69.92)"><path d="m0 0c0.859-2.655 2.889-9.683 4.373-14.91 0.703-2.577 1.25-5.232 1.717-7.184 0.547 2.109 1.328 4.997 1.875 7.495 0.703 3.123 1.482 6.481 2.264 9.527 0.625 2.498 1.25 5.153 1.718 7.182 0.936 0.782 1.483 1.016 3.045 1.016 0.469 0 1.483 0 2.264-0.078 0.469 0 1.328-0.078 1.719-0.078 0.31-0.625 0.545-1.327 0.545-1.952 0-0.703-0.157-1.406-0.391-2.187-2.108-8.432-6.09-22.33-10.15-33.73-4.294-11.01-8.433-14.37-12.26-14.37-4.061 0-6.09 1.406-6.559 2.812 0 0.78 0.547 2.42 0.547 2.42 1.328 0.469 2.029 0.312 2.967 0.312 1.015 0 2.107 0 3.435 0.547l-0.078-0.078c1.875 0.937 4.139 6.87 5.076 11.63-0.078 0.078 0 0.078-0.078 0.078-0.781 1.015-1.094 1.951-1.64 3.669-0.703 2.265-6.168 20.14-9.37 29.12 0.625 1.562 2.264 2.108 6.637 2.108 0.86 0 2.03-1.952 2.342-3.357" fill="#006838"/></g><g transform="translate(69.97 86.75)"><path d="m0 0c0-1.093-0.467-2.498-1.326-3.825-0.469-0.313-0.938-0.469-1.485-0.469-0.623 0-1.169 0.156-1.638 0.391-1.485 0.702-3.592 1.249-5.699 1.249-4.061 0-6.561-1.952-6.561-5.779v-1.014c0.313-1.952 1.25-3.514 2.656-5.075 1.561-1.718 3.983-4.061 5.856-5.778 0.078-0.078 0.312-0.234 0.312-0.312 1.561-1.406 3.123-2.968 4.373-4.295 3.28-3.436 4.84-6.871 4.84-11.24 0-8.667-5.465-14.44-15.62-14.44-5.389 0-9.059 1.406-10.54 2.811-0.859 0.781-1.172 1.249-1.172 1.952 0 1.249 1.016 3.67 2.109 5.388 2.577-2.109 6.012-3.592 9.37-3.592 4.216 0 7.027 2.654 7.027 7.339 0 3.201-1.25 5.544-4.764 8.823-0.859 1.015-1.795 1.952-2.81 2.967-0.235 0.234-0.625 0.547-1.016 0.937l-0.936 0.937c-1.875 1.874-3.591 3.435-4.841 4.997-2.655 3.357-3.592 6.246-3.592 9.136 0 6.168 4.139 12.34 14.6 12.34 6.567-0.014 10.08-2.2 10.86-3.45" fill="#60a839"/></g><g transform="translate(101.5 71.75)"><path d="m0 0c0-1.015-0.467-2.889-1.248-4.216h-0.938c-0.781 0-1.638 0.235-2.576 0.547-1.25 0.546-2.81 0.937-4.138 0.937-0.235 0-0.469 0-0.86-0.079-4.527-0.39-7.728-4.45-7.728-13.43 0-10.78 4.449-13.04 9.056-13.04 2.42 0 5.153 0.858 7.184 1.874 0.391-1.172 0.703-2.421 0.703-2.967-0.078-1.172-0.937-2.499-2.031-3.357-1.561-1.094-4.217-1.796-7.262-1.796-8.666 0-16.16 3.201-16.16 18.89 0 8.198 2.732 13.35 5.855 16.24 3.124 2.889 7.184 3.826 11.09 3.826 4.92 0 8.668-2.342 9.057-3.358l-0.001-0.062z" fill="#60a839"/></g><g transform="translate(115.3 65.9)"><path d="m0 0v-24.6c0-1.25-0.078-2.186-0.781-3.201-1.248-0.937-2.42-1.016-7.494-1.016 0.078 4.139 0.156 9.448 0.156 15.46l0.078 13.04c0 2.499-0.469 4.293-1.016 5.856 0.625 0.624 1.639 1.249 3.358 1.951 0.469 0.156 0.781 0.156 1.094 0.156 1.638 0 2.341-0.467 2.81-1.561 1.483 1.015 3.123 1.718 4.606 2.264 1.33 0.555 3.046 0.867 4.531 0.633 2.264-0.234 3.67-1.015 3.9-2.186 0-1.172-0.31-3.357-1.402-4.919-0.547-0.156-0.547-0.156-1.248-0.156-0.86 0-1.641 0.078-2.266 0.156-0.547 0.156-0.781 0.156-1.013 0.156-2.11 0-3.827-0.547-5.311-2.03" fill="#60a839"/></g><g transform="translate(146.3 49.35)"><path d="m0 0v5.153h-0.781c-0.78 0-1.639-0.078-2.42-0.156h0.078c-3.357-0.625-6.246-2.108-6.246-6.715 0-3.592 1.404-4.919 3.357-5.075h0.469c2.029 0 4.371 1.015 5.309 2.265l-0.078-0.078c0-0.079 0.078 0.467 0.156 0.936 0.156 0.937 0.156 2.108 0.156 3.67m-15.07 19.91c-0.157 0.469-0.157 0.702-0.157 1.015 0 0.234 0.079 0.625 0.235 1.015 1.717 1.562 6.636 3.747 12.1 3.904 1.25 0 1.483 0 2.733-0.078 6.246-0.39 8.277-4.294 8.277-11.09v-3.436c0-2.889 0-5.933-0.078-8.823 0-1.796-0.078-5.309-0.078-6.715 0 0-0.235-3.514 2.185-3.045-0.078-1.093-0.156-2.889-0.156-3.357-0.703-1.015-2.42-2.109-4.84-2.186-1.797 0-3.67 1.171-4.685 2.264-0.391-0.313-1.25-0.859-1.719-1.171-1.873-0.938-3.824-1.093-6.012-1.093-5.308 0-10.38 3.279-10.38 10.54 0 9.448 8.746 12.18 13.66 12.73 0.703 0.077 1.562 0.077 2.265 0.077 0.701 0 1.248 0 1.717-0.077v3.825c0 3.279-0.312 4.997-2.889 4.997-2.498 0-5.543-1.093-7.808-1.952-0.858-0.39-1.717-0.624-2.889-0.624-1.094 1.171-1.404 2.498-1.56 3.357l0.078-0.078z" fill="#60a839"/></g><g transform="translate(184.1 57.7)"><path d="m0 0c0 7.964-2.5 11.16-6.871 11.16-2.266 0-4.451-1.327-6.012-2.654v-21.94c1.092-1.171 3.045-2.108 4.918-2.108 3.276 0 7.962 3.12 7.962 15.54m-13.35-35.45c-0.625-0.391-2.421-0.781-4.373-0.781-0.937 0-2.029 0.156-3.123 0.39-0.234 1.327-0.234 3.904-0.234 7.887v35.99c0 2.42-0.313 4.216-0.859 5.777 0.468 0.782 1.64 1.328 3.279 2.031 0.625 0.156 1.016 0.156 1.016 0.156 1.406 0 2.419-0.78 2.888-1.64 1.563 1.016 3.123 1.796 4.686 2.343 1.56 0.546 2.967 0.858 4.84 0.858 7.73 0 13.98-4.84 13.98-17.02 0-9.76-2.889-15.77-7.027-19.05-2.811-2.343-5.856-2.967-8.51-2.967s-4.607 0.468-6.09 1.327v-11.71c0-1.328 0-2.343-0.156-3.358l-0.313-0.234z" fill="#60a839"/></g><g transform="translate(205.6 71.29)"><path d="m0 0c0.857-2.655 2.889-9.683 4.371-14.91 0.703-2.577 1.25-5.232 1.719-7.184 0.547 2.109 1.328 4.997 1.873 7.495 0.703 3.123 1.484 6.481 2.266 9.527 0.623 2.498 1.248 5.153 1.716 7.182 0.938 0.782 1.485 1.016 3.045 1.016 0.469 0 1.485 0 2.266-0.078 0.467 0 1.326-0.078 1.717-0.078 0.312-0.625 0.547-1.327 0.547-1.952 0-0.703-0.157-1.406-0.391-2.187-2.108-8.432-6.09-22.33-10.15-33.73-4.295-11.01-8.432-14.37-12.26-14.37-4.061 0-6.09 1.406-6.559 2.812 0 0.78 0.547 2.42 0.547 2.42 1.326 0.469 2.029 0.312 2.967 0.312 1.013 0 2.107 0 3.435 0.547l-0.078-0.078c1.873 0.937 4.137 6.87 5.074 11.63-0.078 0.078 0 0.078-0.078 0.078-0.781 1.015-1.093 1.951-1.638 3.669-0.703 2.265-6.17 20.14-9.371 29.12 0.625 1.562 2.265 2.108 6.636 2.108 0.841 0.007 2.013-1.945 2.325-3.35" fill="#60a839"/></g><g transform="translate(210.8 177)"><path d="m0 0c0-40.39-32.74-73.13-73.13-73.13s-73.13 32.74-73.13 73.13 32.74 73.13 73.13 73.13c40.43 0 73.17-32.74 73.17-73.13" fill="#006838"/></g><g transform="translate(137.7 111.3)"><path d="m0 0c-38.45 0-69.74 31.29-69.74 69.74s31.28 69.74 69.74 69.74c38.45 0 69.74-31.28 69.74-69.74 0-38.47-31.29-69.76-69.74-69.76" fill="#fff"/></g><g transform="translate(137.7 254.1)"><path d="m0 0c-40.39 0-73.13-32.74-73.13-73.13s32.74-73.13 73.13-73.13 73.13 32.74 73.13 73.13c0 40.43-32.74 73.17-73.13 73.17m0-6.782c36.58 0 66.35-29.76 66.35-66.35s-29.76-66.35-66.35-66.35c-36.58 0-66.35 29.76-66.35 66.35 0 36.58 29.76 66.35 66.35 66.35" fill="#60a839"/></g><g transform="translate(91.26 173.6)"><path d="m0 0 21.79-32.83s32.2 20.05 36.76 41.67l-6.248 7.937s-35.91-4.28-52.3-16.78" fill="#8e8e8e"/></g><g transform="translate(91.26 173.6)"><path d="m0 0 21.79-32.83s31 21.24 35.56 42.86l-5.052 6.744c0 0.01-35.91-4.27-52.3-16.77" fill="#d1d3d4"/></g><g transform="translate(143.6 190.4)"><path d="m0 0s16.83 13.32 23.24 18.55c13.58 11.06 19.82 6.56 20.28-0.31 0.45-6.87-8.67-10.58-37.27-26.18l-6.25 7.94z" fill="#a97c50"/></g><g transform="translate(143.6 190.4)"><path d="m0 0s-0.035-0.002-0.047-0.002l5.1-6.743c-4.387-20.81-33.12-41.15-35.41-42.75 0 0 32.05 19.94 36.61 41.56l-6.253 7.935z" fill="#58595b"/></g><g transform="translate(187.1 208.7)"><path d="m0 0c-0.172 2.62-0.992 4.477-2.705 5.798 1.043-1.302 1.447-2.693 1.578-4.673 0.451-6.867-8.66-10.58-37.24-26.16l1.095-1.142c28.61 15.6 37.73 19.31 37.28 26.18" fill="#754c29"/></g><g transform="translate(175.8 209.6)"><path d="m0 0c0 0.806 0.725 1.457 1.617 1.457 0.893 0 1.619-0.651 1.619-1.457 0-0.804-0.726-1.455-1.619-1.455-0.892 0-1.617 0.651-1.617 1.455" fill="#fff"/></g><g transform="translate(164.6 202)"><path d="m0 0c0 0.804 0.721 1.457 1.615 1.457 0.897 0 1.619-0.653 1.619-1.457 0-0.803-0.722-1.453-1.619-1.453-0.894 0-1.615 0.65-1.615 1.453" fill="#fff"/></g><g transform="translate(153.4 194.4)"><path d="m0 0c0 0.8 0.723 1.453 1.615 1.453 0.895 0 1.619-0.653 1.619-1.453 0-0.806-0.724-1.457-1.619-1.457-0.892 0-1.615 0.651-1.615 1.457" fill="#fff"/></g></g></g></svg>
