<svg xmlns="http://www.w3.org/2000/svg" width="24" height="24" viewBox="0 0 24 24">
    <path d="M 0.8125 0 C 0.4125 0 1.4802974e-16 0.4125 0 0.8125 L 0 23.1875 C 0 23.5875 0.4125 24 0.8125 24 L 23.1875 24 C 23.5875 24 24 23.5875 24 23.1875 L 24 0.8125 C 24 0.4125 23.5875 1.4802974e-16 23.1875 0 L 0.8125 0 z M 10 4 C 13.3 4 16 6.7 16 10 C 16 11.3 15.60625 12.5 14.90625 13.5 L 20.09375 18.6875 C 20.19375 18.7875 20.1875 19.1875 19.6875 19.6875 C 19.1875 20.1875 18.7875 20.19375 18.6875 20.09375 L 13.5 14.90625 C 12.5 15.60625 11.3 16 10 16 C 6.7 16 4 13.3 4 10 C 4 6.7 6.7 4 10 4 z M 10 6 C 7.790861 6 6 7.790861 6 10 C 6 12.209139 7.790861 14 10 14 C 12.209139 14 14 12.209139 14 10 C 14 7.790861 12.209139 6 10 6 z"/>
</svg>
