<svg xmlns="http://www.w3.org/2000/svg" viewBox="0 0 50 50">
    <path d="M 12.496094 3 L 0 25 L 12.496094 47 L 37.503906 47 L 50 25 L 37.503906 3 L 12.496094 3 z M 13.648438 5 L 36.351562 5 L 47.710938 25 L 36.351562 45 L 13.648438 45 L 2.2890625 25 L 13.648438 5 z M 14.767578 7 L 4.5449219 25 L 14.767578 43 L 35.232422 43 L 45.457031 25 L 35.232422 7 L 14.767578 7 z M 17.464844 9 L 31.138672 9 L 20.896484 12.587891 L 17.464844 9 z M 34.683594 10.066406 L 38.259766 16.361328 L 31.361328 23.525391 L 26.583984 18.53125 L 34.683594 10.066406 z M 15 10.623047 L 15 14.654297 L 12.140625 15.65625 L 15 10.623047 z M 30.792969 11.240234 L 25.199219 17.085938 L 22.414062 14.175781 L 30.792969 11.240234 z M 17 11.408203 L 18.824219 13.314453 L 17 13.953125 L 17 11.408203 z M 20.341797 14.902344 L 23.816406 18.53125 L 19.072266 23.490234 L 17 21.359375 L 17 16.072266 L 20.341797 14.902344 z M 15 16.773438 L 15 19.302734 L 13.167969 17.416016 L 15 16.773438 z M 10.859375 17.912109 L 15 22.171875 L 15 27.746094 L 10.855469 32.080078 L 6.8320312 25 L 10.859375 17.912109 z M 39.693359 18.884766 L 43.166016 25 L 39.294922 31.816406 L 37.539062 29.982422 L 39.693359 18.884766 z M 25.201172 19.978516 L 29.972656 24.966797 L 25.263672 29.857422 L 20.46875 24.925781 L 25.201172 19.978516 z M 37.416016 20.119141 L 35.845703 28.212891 L 32.744141 24.970703 L 37.416016 20.119141 z M 17 24.228516 L 17.689453 24.935547 L 17 25.65625 L 17 24.228516 z M 19.083984 26.371094 L 23.875 31.298828 L 23.199219 32 L 17 32 L 17 28.548828 L 19.083984 26.371094 z M 31.355469 26.412109 L 35.378906 30.617188 L 35.111328 32 L 27.345703 32 L 26.65625 31.292969 L 31.355469 26.412109 z M 15 30.640625 L 15 32 L 13.699219 32 L 15 30.640625 z M 11.945312 34 L 15 34 L 15 39.376953 L 11.945312 34 z M 17 34 L 21.271484 34 L 17 38.4375 L 17 34 z M 24.048828 34 L 26.501953 34 L 33.306641 41 L 17.308594 41 L 24.048828 34 z M 29.291016 34 L 34.724609 34 L 33.818359 38.658203 L 29.291016 34 z M 36.761719 34 L 38.054688 34 L 36.089844 37.457031 L 36.761719 34 z"/>
</svg>
