<?xml version="1.0"?>
<svg xmlns="http://www.w3.org/2000/svg" width="26" height="26" viewBox="0 0 26 26">
    <path style="text-indent:0;text-align:start;line-height:normal;text-transform:none;block-progression:tb;-inkscape-font-specification:Bitstream Vera Sans" d="M 13 0 C 8.0414839 0 4 4.0414839 4 9 C 4 9.429294 4.0318443 9.8971566 4.09375 10.375 L 2.75 11.03125 A 1.0001 1.0001 0 0 0 2 12 L 2 21 A 1.0001 1.0001 0 0 0 2.625 21.9375 L 12.625 25.9375 A 1.0001 1.0001 0 0 0 13.375 25.9375 L 23.375 21.9375 A 1.0001 1.0001 0 0 0 24 21 L 24 12 A 1.0001 1.0001 0 0 0 23.3125 11.0625 L 21.90625 10.375 C 21.967324 9.9047132 22 9.4358092 22 9 C 22 4.0414839 17.958516 0 13 0 z M 13 2 C 16.877484 2 20 5.1225161 20 9 C 20 10.072339 19.745271 11.458984 19.28125 12.28125 A 1.0001 1.0001 0 0 0 19.1875 12.4375 L 13 14.90625 L 6.90625 12.46875 A 1.0099602 1.0099602 0 0 0 6.78125 12.25 C 6.4254792 11.730209 6 9.9766102 6 9 C 6 5.1225161 9.1225161 2 13 2 z M 13 5 C 10.793 5 9 6.791 9 9 C 9 11.208 10.793 13 13 13 C 15.207 13 17 11.208 17 9 C 17 6.791 15.207 5 13 5 z M 13 7.6875 C 13.717 7.6875 14.3125 8.282 14.3125 9 C 14.3125 9.718 13.717 10.3125 13 10.3125 C 12.283 10.3125 11.6875 9.718 11.6875 9 C 11.6875 8.282 12.283 7.6875 13 7.6875 z M 4 13.5 L 12.625 16.9375 A 1.0001 1.0001 0 0 0 13 17 L 13 23.90625 L 4 20.3125 L 4 13.5 z" overflow="visible" enable-background="accumulate" font-family="Bitstream Vera Sans"/>
</svg>
